<?xml version="1.0" encoding="UTF-8" standalone="no"?>
<!-- Created with Inkscape (http://www.inkscape.org/) -->

<svg
   xmlns:dc="http://purl.org/dc/elements/1.1/"
   xmlns:cc="http://creativecommons.org/ns#"
   xmlns:rdf="http://www.w3.org/1999/02/22-rdf-syntax-ns#"
   xmlns:svg="http://www.w3.org/2000/svg"
   xmlns="http://www.w3.org/2000/svg"
   xmlns:sodipodi="http://sodipodi.sourceforge.net/DTD/sodipodi-0.dtd"
   xmlns:inkscape="http://www.inkscape.org/namespaces/inkscape"
   width="338.375mm"
   height="259mm"
   viewBox="0 0 338.375 258.99999"
   version="1.1"
   id="svg8"
   inkscape:version="0.92.4 (f8dce91, 2019-08-02)"
   sodipodi:docname="safety_days_sign_vinyl.svg"
   inkscape:export-filename="/home/matt/Downloads/safety_days_sign_vinyl.png"
   inkscape:export-xdpi="60.459999"
   inkscape:export-ydpi="60.459999">
  <defs
     id="defs2">
    <marker
       inkscape:stockid="Arrow1Lstart"
       orient="auto"
       refY="0"
       refX="0"
       id="marker1793"
       style="overflow:visible"
       inkscape:isstock="true">
      <path
         id="path1791"
         d="M 0,0 5,-5 -12.5,0 5,5 Z"
         style="fill-rule:evenodd;stroke:#000000;stroke-width:1.00000003pt"
         transform="matrix(0.8,0,0,0.8,10,0)"
         inkscape:connector-curvature="0" />
    </marker>
    <marker
       inkscape:stockid="Arrow1Lstart"
       orient="auto"
       refY="0"
       refX="0"
       id="Arrow1Lstart"
       style="overflow:visible"
       inkscape:isstock="true">
      <path
         id="path838"
         d="M 0,0 5,-5 -12.5,0 5,5 Z"
         style="fill-rule:evenodd;stroke:#000000;stroke-width:1.00000003pt"
         transform="matrix(0.8,0,0,0.8,10,0)"
         inkscape:connector-curvature="0" />
    </marker>
    <pattern
       id="pattern2554"
       patternTransform="matrix(0.26458333,0,0,0.26458333,45.735043,159.76157)"
       height="59.780219"
       width="548.37752"
       patternUnits="userSpaceOnUse">
      <g
         id="g979"
         clip-path="url(#clipPath983)"
         transform="matrix(3.7795276,0,0,3.7795276,-6.2593884,-552.84939)">
        <rect
           rx="0"
           ry="0"
           y="146.27473"
           x="5.9250584"
           height="15.81685"
           width="171.5755"
           id="rect880-29"
           style="opacity:1;fill:#ececec;fill-opacity:1;stroke:none;stroke-width:7.28640509;stroke-linecap:butt;stroke-linejoin:bevel;stroke-miterlimit:4;stroke-dasharray:none;stroke-dashoffset:0;stroke-opacity:1" />
        <path
           sodipodi:nodetypes="ccccc"
           inkscape:connector-curvature="0"
           id="rect884-0"
           d="m 33.389023,146.44918 h 25.818682 l 16.630952,15.46795 H 50.019975 Z"
           style="opacity:1;fill:#cd313b;fill-opacity:1;stroke:none;stroke-width:7.67135477;stroke-linecap:butt;stroke-linejoin:bevel;stroke-miterlimit:4;stroke-dasharray:none;stroke-dashoffset:0;stroke-opacity:1" />
        <path
           sodipodi:nodetypes="ccccc"
           inkscape:connector-curvature="0"
           id="rect884-5-9"
           d="m 81.752883,146.44918 h 25.818677 l 16.63095,15.46795 H 98.38383 Z"
           style="opacity:1;fill:#cd313b;fill-opacity:1;stroke:none;stroke-width:7.67135477;stroke-linecap:butt;stroke-linejoin:bevel;stroke-miterlimit:4;stroke-dasharray:none;stroke-dashoffset:0;stroke-opacity:1" />
        <path
           sodipodi:nodetypes="ccccc"
           inkscape:connector-curvature="0"
           id="rect884-82-9"
           d="m 130.11673,146.44918 h 25.81868 l 16.63095,15.46795 h -25.81868 z"
           style="opacity:1;fill:#cd313b;fill-opacity:1;stroke:none;stroke-width:7.67135477;stroke-linecap:butt;stroke-linejoin:bevel;stroke-miterlimit:4;stroke-dasharray:none;stroke-dashoffset:0;stroke-opacity:1" />
        <path
           sodipodi:nodetypes="ccccc"
           inkscape:connector-curvature="0"
           id="rect884-82-6-4"
           d="M -14.974821,146.44918 H 10.84386 l 16.630951,15.46795 H 1.6561299 Z"
           style="opacity:1;fill:#cd313b;fill-opacity:1;stroke:none;stroke-width:7.67135477;stroke-linecap:butt;stroke-linejoin:bevel;stroke-miterlimit:4;stroke-dasharray:none;stroke-dashoffset:0;stroke-opacity:1" />
        <rect
           rx="0"
           ry="0"
           y="146.27473"
           x="177.37221"
           height="15.81685"
           width="193.20738"
           id="rect880-2-5"
           style="opacity:1;fill:#ececec;fill-opacity:1;stroke:none;stroke-width:7.73210096;stroke-linecap:butt;stroke-linejoin:bevel;stroke-miterlimit:4;stroke-dasharray:none;stroke-dashoffset:0;stroke-opacity:1" />
        <path
           sodipodi:nodetypes="ccccc"
           inkscape:connector-curvature="0"
           id="rect884-82-6-7-1"
           d="m 178.10419,146.44918 h 25.81868 l 16.63095,15.46795 h -25.81868 z"
           style="opacity:1;fill:#cd313b;fill-opacity:1;stroke:none;stroke-width:7.67135477;stroke-linecap:butt;stroke-linejoin:bevel;stroke-miterlimit:4;stroke-dasharray:none;stroke-dashoffset:0;stroke-opacity:1" />
      </g>
    </pattern>
    <clipPath
       id="clipPath983"
       clipPathUnits="userSpaceOnUse">
      <rect
         ry="0.52127224"
         y="134.91132"
         x="1.6561298"
         height="42.795277"
         width="145.09155"
         id="rect985"
         style="opacity:1;fill:#cd313b;fill-opacity:1;stroke:none;stroke-width:8.76779556;stroke-linecap:butt;stroke-linejoin:bevel;stroke-miterlimit:4;stroke-dasharray:none;stroke-dashoffset:0;stroke-opacity:1" />
    </clipPath>
    <clipPath
       id="clipPath2683"
       clipPathUnits="userSpaceOnUse">
      <rect
         ry="0"
         y="123.3054"
         x="1.65613"
         height="81.468399"
         width="144.99863"
         id="rect2685"
         style="opacity:1;fill:#ffff00;fill-opacity:1;stroke:none;stroke-width:0.67190814" />
    </clipPath>
    <clipPath
       id="clipPath2683-5"
       clipPathUnits="userSpaceOnUse">
      <rect
         ry="0"
         y="123.3054"
         x="1.65613"
         height="81.468399"
         width="144.99863"
         id="rect2685-0"
         style="opacity:1;fill:#ffff00;fill-opacity:1;stroke:none;stroke-width:0.67190814" />
    </clipPath>
    <clipPath
       id="clipPath2683-5-1"
       clipPathUnits="userSpaceOnUse">
      <rect
         ry="0"
         y="123.3054"
         x="1.65613"
         height="81.468399"
         width="144.99863"
         id="rect2685-0-0"
         style="opacity:1;fill:#ffff00;fill-opacity:1;stroke:none;stroke-width:0.67190814" />
    </clipPath>
    <clipPath
       id="clipPath2683-4"
       clipPathUnits="userSpaceOnUse">
      <rect
         ry="0"
         y="123.3054"
         x="1.65613"
         height="81.468399"
         width="144.99863"
         id="rect2685-2"
         style="opacity:1;fill:#ffff00;fill-opacity:1;stroke:none;stroke-width:0.67190814" />
    </clipPath>
    <clipPath
       id="clipPath16"
       clipPathUnits="userSpaceOnUse">
      <path
         inkscape:connector-curvature="0"
         id="path18"
         d="m 427.38,725.18 110.94,0 0,46.26 -110.94,0 0,-46.26 z" />
    </clipPath>
    <clipPath
       id="clipPath36"
       clipPathUnits="userSpaceOnUse">
      <path
         inkscape:connector-curvature="0"
         id="path38"
         d="m 56.1,699.98 483.66,0 0,1.2 -483.66,0 0,-1.2 z" />
    </clipPath>
    <clipPath
       id="clipPath90"
       clipPathUnits="userSpaceOnUse">
      <path
         inkscape:connector-curvature="0"
         id="path92"
         d="m 56.1,166.7 85.86,0 0,1.2 -85.86,0 0,-1.2 z" />
    </clipPath>
    <clipPath
       id="clipPath102"
       clipPathUnits="userSpaceOnUse">
      <path
         inkscape:connector-curvature="0"
         id="path104"
         d="m 141.54,166.7 85.44,0 0,1.2 -85.44,0 0,-1.2 z" />
    </clipPath>
    <clipPath
       id="clipPath114"
       clipPathUnits="userSpaceOnUse">
      <path
         inkscape:connector-curvature="0"
         id="path116"
         d="m 226.56,166.7 313.2,0 0,1.2 -313.2,0 0,-1.2 z" />
    </clipPath>
    <clipPath
       id="clipPath126"
       clipPathUnits="userSpaceOnUse">
      <path
         inkscape:connector-curvature="0"
         id="path128"
         d="m 56.04,661.04 1.38,0 0,40.14 -1.38,0 0,-40.14 z" />
    </clipPath>
    <clipPath
       id="clipPath168"
       clipPathUnits="userSpaceOnUse">
      <path
         inkscape:connector-curvature="0"
         id="path170"
         d="m 56.04,166.7 1.38,0 0,72.6 -1.38,0 0,-72.6 z" />
    </clipPath>
    <clipPath
       id="clipPath242"
       clipPathUnits="userSpaceOnUse">
      <path
         inkscape:connector-curvature="0"
         id="path244"
         d="m 538.32,661.04 1.44,0 0,40.14 -1.44,0 0,-40.14 z" />
    </clipPath>
    <clipPath
       id="clipPath284"
       clipPathUnits="userSpaceOnUse">
      <path
         inkscape:connector-curvature="0"
         id="path286"
         d="m 538.32,166.7 1.44,0 0,72.6 -1.44,0 0,-72.6 z" />
    </clipPath>
    <clipPath
       id="clipPath378"
       clipPathUnits="userSpaceOnUse">
      <path
         inkscape:connector-curvature="0"
         id="path380"
         d="m 80.52,473.06 37.38,0 0,37.44 -37.38,0 0,-37.44 z" />
    </clipPath>
    <g
       id="raypair">
      <path
         id="path1714"
         stroke="none"
         fill="black"
         d="M -2,0 l -5,-135 h 14 l -5,135" />
      <path
         id="path1716"
         transform="rotate(15)"
         stroke="none"
         fill="black"
         d="M -2,0 l -3,-90 h 10 l -3,90" />
    </g>
    <g
       id="triangle">
      <path
         id="path1719"
         stroke-linejoin="round"
         d="M 0,-330 l 280,490 h -560 z" />
    </g>
    <rect
       height="8"
       width="8"
       id="p" />
  </defs>
  <sodipodi:namedview
     id="base"
     pagecolor="#ffffff"
     bordercolor="#666666"
     borderopacity="1.0"
     inkscape:pageopacity="0.0"
     inkscape:pageshadow="2"
     inkscape:zoom="1.2286952"
     inkscape:cx="639.3803"
     inkscape:cy="484.28992"
     inkscape:document-units="mm"
     inkscape:current-layer="layer1"
     showgrid="false"
     units="mm"
     inkscape:snap-page="false"
     inkscape:window-width="3440"
     inkscape:window-height="1385"
     inkscape:window-x="0"
     inkscape:window-y="27"
     inkscape:window-maximized="1"
     inkscape:pagecheckerboard="true"
     inkscape:snap-grids="true"
     fit-margin-top="2.5"
     fit-margin-left="2.5"
     fit-margin-right="2.5"
     fit-margin-bottom="2.5"
     inkscape:snap-to-guides="true"
     inkscape:snap-others="false"
     showguides="false">
    <inkscape:grid
       type="xygrid"
       id="grid64"
       originx="23.101837"
       originy="72.649702" />
  </sodipodi:namedview>
  <metadata
     id="metadata5">
    <rdf:RDF>
      <cc:Work
         rdf:about="">
        <dc:format>image/svg+xml</dc:format>
        <dc:type
           rdf:resource="http://purl.org/dc/dcmitype/StillImage" />
        <dc:title />
      </cc:Work>
    </rdf:RDF>
  </metadata>
  <g
     inkscape:label="Layer 1"
     inkscape:groupmode="layer"
     id="layer1"
     transform="translate(69.726851,81.919134)">
    <rect
       style="opacity:1;fill:#00a652;fill-opacity:1;stroke:#000000;stroke-width:4.874;stroke-linecap:square;stroke-linejoin:miter;stroke-miterlimit:4;stroke-dasharray:none;stroke-dashoffset:0;stroke-opacity:1;paint-order:markers fill stroke"
       id="rect1436"
       width="323.27307"
       height="48.684986"
       x="-62.175888"
       y="-74.004189" />
    <rect
       style="opacity:1;fill:none;fill-opacity:1;stroke:#ff0707;stroke-width:0.10208631;stroke-linecap:square;stroke-linejoin:miter;stroke-miterlimit:4;stroke-dasharray:none;stroke-dashoffset:0;stroke-opacity:1;paint-order:markers fill stroke"
       id="rect10"
       width="239.89857"
       height="71.936279"
       x="-52.238644"
       y="11.698828" />
    <text
       xml:space="preserve"
       style="font-style:normal;font-weight:normal;font-size:10.58333302px;line-height:1.25;font-family:sans-serif;letter-spacing:0px;word-spacing:0px;fill:#000000;fill-opacity:1;stroke:none;stroke-width:0.26458332"
       x="37.018421"
       y="31.237211"
       id="text1320"><tspan
         sodipodi:role="line"
         id="tspan1318"
         x="37.018421"
         y="40.600979"
         style="stroke-width:0.26458332" /></text>
    <rect
       y="123.38273"
       x="-62.175888"
       height="48.684986"
       width="323.27307"
       id="rect968"
       style="opacity:1;fill:#00a652;fill-opacity:1;stroke:#000000;stroke-width:4.87373543;stroke-linecap:square;stroke-linejoin:miter;stroke-miterlimit:4;stroke-dasharray:none;stroke-dashoffset:0;stroke-opacity:1;paint-order:markers fill stroke" />
    <rect
       style="opacity:1;fill:none;fill-opacity:1;stroke:#fc0707;stroke-width:0.35934433;stroke-linecap:square;stroke-linejoin:round;stroke-miterlimit:4;stroke-dasharray:none;stroke-dashoffset:0;stroke-opacity:1;paint-order:markers fill stroke"
       id="rect10-3"
       width="329.09683"
       height="252.01543"
       x="-65.105896"
       y="-77.06189" />
    <path
       inkscape:connector-curvature="0"
       id="path1008"
       style="font-style:normal;font-variant:normal;font-weight:bold;font-stretch:normal;font-size:16.27110481px;line-height:1.25;font-family:STIXSizeTwoSym;-inkscape-font-specification:'STIXSizeTwoSym, Bold';font-variant-ligatures:normal;font-variant-caps:normal;font-variant-numeric:normal;font-feature-settings:normal;text-align:start;letter-spacing:0px;word-spacing:0px;writing-mode:lr-tb;text-anchor:start;fill:#ff0018;fill-opacity:1;stroke:#000000;stroke-width:0.50611508;stroke-miterlimit:4;stroke-dasharray:none;stroke-dashoffset:0;stroke-opacity:1"
       d="m -43.275072,-64.504403 h 11.244287 q 5.015064,0 7.689762,2.522431 2.692306,2.502581 2.692306,7.150204 0,4.667472 -2.692306,7.189903 -2.674698,2.502581 -7.689762,2.502581 h -4.469568 v 10.288318 h -6.774719 z m 6.774719,5.541398 v 8.282323 h 3.748103 q 1.97084,0 3.044245,-1.072546 1.073383,-1.092395 1.073383,-3.07854 0,-1.986171 -1.073383,-3.058691 -1.073405,-1.072546 -3.044245,-1.072546 z" />
    <path
       inkscape:connector-curvature="0"
       id="path1010"
       style="font-style:normal;font-variant:normal;font-weight:bold;font-stretch:normal;font-size:16.27110481px;line-height:1.25;font-family:STIXSizeTwoSym;-inkscape-font-specification:'STIXSizeTwoSym, Bold';font-variant-ligatures:normal;font-variant-caps:normal;font-variant-numeric:normal;font-feature-settings:normal;text-align:start;letter-spacing:0px;word-spacing:0px;writing-mode:lr-tb;text-anchor:start;fill:#ffa52c;fill-opacity:1;stroke:#000000;stroke-width:0.50611508;stroke-miterlimit:4;stroke-dasharray:none;stroke-dashoffset:0;stroke-opacity:1"
       d="m -7.2546023,-51.355988 q 2.1292024,0 3.0442236,-0.893776 0.9326293,-0.893775 0.9326293,-2.939519 0,-2.025895 -0.9326293,-2.899796 -0.9150212,-0.873926 -3.0442236,-0.873926 H -10.10527 v 7.607017 z m -2.8506677,5.283205 v 11.221817 h -6.774741 v -29.653437 h 10.3468742 q 5.1910118,0 7.6017659,1.966321 2.4283401,1.966296 2.4283401,6.21668 0,2.939519 -1.266961,4.826392 -1.24935297,1.886849 -3.7832749,2.780624 1.39012879,0.357515 2.4811199,1.628656 1.1085992,1.25129 2.2347843,3.81342 l 3.6777151,8.421344 h -7.21465437 l -3.20260753,-7.368673 q -0.9678011,-2.224489 -1.9708184,-3.038817 -0.9854091,-0.814327 -2.6395039,-0.814327 z" />
    <path
       inkscape:connector-curvature="0"
       id="path1012"
       style="font-style:normal;font-variant:normal;font-weight:bold;font-stretch:normal;font-size:16.27110481px;line-height:1.25;font-family:STIXSizeTwoSym;-inkscape-font-specification:'STIXSizeTwoSym, Bold';font-variant-ligatures:normal;font-variant-caps:normal;font-variant-numeric:normal;font-feature-settings:normal;text-align:start;letter-spacing:0px;word-spacing:0px;writing-mode:lr-tb;text-anchor:start;fill:#ffff41;fill-opacity:1;stroke:#000000;stroke-width:0.50611508;stroke-miterlimit:4;stroke-dasharray:none;stroke-dashoffset:0;stroke-opacity:1"
       d="m 10.852399,-64.504403 h 6.774741 v 29.653437 h -6.774741 z" />
    <path
       inkscape:connector-curvature="0"
       id="path1014"
       style="font-style:normal;font-variant:normal;font-weight:bold;font-stretch:normal;font-size:16.27110481px;line-height:1.25;font-family:STIXSizeTwoSym;-inkscape-font-specification:'STIXSizeTwoSym, Bold';font-variant-ligatures:normal;font-variant-caps:normal;font-variant-numeric:normal;font-feature-settings:normal;text-align:start;letter-spacing:0px;word-spacing:0px;writing-mode:lr-tb;text-anchor:start;fill:#0000f9;fill-opacity:1;stroke:#000000;stroke-width:0.50611508;stroke-miterlimit:4;stroke-dasharray:none;stroke-dashoffset:0;stroke-opacity:1"
       d="m 31.07104,-58.724662 v 18.093955 h 2.42834 q 4.152822,0 6.334805,-2.323812 2.19959,-2.323811 2.19959,-6.752965 0,-4.409279 -2.181982,-6.713216 -2.182005,-2.303962 -6.352413,-2.303962 z m -6.774741,-5.779741 h 7.144266 q 5.982888,0 8.903921,0.973223 2.938664,0.953374 5.032672,3.257311 1.847651,2.00602 2.745086,4.627773 0.897435,2.621728 0.897435,5.938612 0,3.356633 -0.897435,5.998236 -0.897435,2.621728 -2.745086,4.627748 -2.111616,2.303962 -5.067866,3.277185 -2.956227,0.953349 -8.868727,0.953349 h -7.144266 z" />
    <path
       inkscape:connector-curvature="0"
       id="path1016"
       style="font-style:normal;font-variant:normal;font-weight:bold;font-stretch:normal;font-size:16.27110481px;line-height:1.25;font-family:STIXSizeTwoSym;-inkscape-font-specification:'STIXSizeTwoSym, Bold';font-variant-ligatures:normal;font-variant-caps:normal;font-variant-numeric:normal;font-feature-settings:normal;text-align:start;letter-spacing:0px;word-spacing:0px;writing-mode:lr-tb;text-anchor:start;fill:#86007d;fill-opacity:1;stroke:#000000;stroke-width:0.50611508;stroke-miterlimit:4;stroke-dasharray:none;stroke-dashoffset:0;stroke-opacity:1"
       d="m 54.210713,-64.504403 h 18.282972 v 5.779741 H 60.985432 v 5.521549 h 10.821982 v 5.779742 H 60.985432 v 6.792664 h 11.895387 v 5.779741 H 54.210713 Z" />
    <path
       inkscape:connector-curvature="0"
       id="path1018"
       style="font-style:normal;font-variant:normal;font-weight:bold;font-stretch:normal;font-size:16.27110481px;line-height:1.25;font-family:STIXSizeTwoSym;-inkscape-font-specification:'STIXSizeTwoSym, Bold';font-variant-ligatures:normal;font-variant-caps:normal;font-variant-numeric:normal;font-feature-settings:normal;text-align:start;letter-spacing:0px;word-spacing:0px;writing-mode:lr-tb;text-anchor:start;fill:#ffffff;fill-opacity:1;stroke:#000000;stroke-width:0.50611508;stroke-miterlimit:4;stroke-dasharray:none;stroke-dashoffset:0;stroke-opacity:1"
       d="m 109.65795,-63.570904 v 6.276278 q -2.1644,-1.092395 -4.22321,-1.648505 -2.05882,-0.556134 -3.88888,-0.556134 -2.428342,0 -3.589721,0.754754 -1.161401,0.754729 -1.161401,2.343661 0,1.191692 0.774267,1.866999 0.791854,0.655432 2.850665,1.132119 l 2.88586,0.655432 q 4.38158,0.993072 6.22923,3.018967 1.84767,2.025894 1.84767,5.759867 0,4.905841 -2.58672,7.3091 -2.56912,2.383385 -7.86574,2.383385 -2.498723,0 -5.015059,-0.536261 -2.516337,-0.53626 -5.03265,-1.588931 v -6.455023 q 2.516313,1.509483 4.85668,2.284087 2.357952,0.754729 4.539959,0.754729 2.21717,0 3.39616,-0.834177 1.17899,-0.834202 1.17899,-2.383409 0,-1.390312 -0.80946,-2.145042 -0.79186,-0.754754 -3.185,-1.350613 l -2.621921,-0.655432 q -3.941659,-0.953349 -5.771724,-3.038816 -1.812456,-2.085468 -1.812456,-5.620846 0,-4.429154 2.533922,-6.812539 2.533944,-2.383409 7.285039,-2.383409 2.1644,0 4.45199,0.377364 2.28756,0.357515 4.73351,1.092395 z" />
    <path
       inkscape:connector-curvature="0"
       id="path1020"
       style="font-style:normal;font-variant:normal;font-weight:bold;font-stretch:normal;font-size:16.27110481px;line-height:1.25;font-family:STIXSizeTwoSym;-inkscape-font-specification:'STIXSizeTwoSym, Bold';font-variant-ligatures:normal;font-variant-caps:normal;font-variant-numeric:normal;font-feature-settings:normal;text-align:start;letter-spacing:0px;word-spacing:0px;writing-mode:lr-tb;text-anchor:start;fill:#ffffff;fill-opacity:1;stroke:#000000;stroke-width:0.50611508;stroke-miterlimit:4;stroke-dasharray:none;stroke-dashoffset:0;stroke-opacity:1"
       d="m 133.29032,-40.253318 h -10.59321 l -1.67169,5.402352 h -6.80993 l 9.73099,-29.653437 h 8.07687 l 9.73099,29.653437 h -6.80993 z m -8.90393,-5.501674 h 7.19705 l -3.58972,-11.797827 z" />
    <path
       inkscape:connector-curvature="0"
       id="path1022"
       style="font-style:normal;font-variant:normal;font-weight:bold;font-stretch:normal;font-size:16.27110481px;line-height:1.25;font-family:STIXSizeTwoSym;-inkscape-font-specification:'STIXSizeTwoSym, Bold';font-variant-ligatures:normal;font-variant-caps:normal;font-variant-numeric:normal;font-feature-settings:normal;text-align:start;letter-spacing:0px;word-spacing:0px;writing-mode:lr-tb;text-anchor:start;fill:#ffffff;fill-opacity:1;stroke:#000000;stroke-width:0.50611508;stroke-miterlimit:4;stroke-dasharray:none;stroke-dashoffset:0;stroke-opacity:1"
       d="m 145.2209,-64.504403 h 18.28299 v 5.779741 h -11.50825 v 5.521549 h 10.82198 v 5.779742 h -10.82198 v 12.572405 h -6.77474 z" />
    <path
       inkscape:connector-curvature="0"
       id="path1024"
       style="font-style:normal;font-variant:normal;font-weight:bold;font-stretch:normal;font-size:16.27110481px;line-height:1.25;font-family:STIXSizeTwoSym;-inkscape-font-specification:'STIXSizeTwoSym, Bold';font-variant-ligatures:normal;font-variant-caps:normal;font-variant-numeric:normal;font-feature-settings:normal;text-align:start;letter-spacing:0px;word-spacing:0px;writing-mode:lr-tb;text-anchor:start;fill:#ffffff;fill-opacity:1;stroke:#000000;stroke-width:0.50611508;stroke-miterlimit:4;stroke-dasharray:none;stroke-dashoffset:0;stroke-opacity:1"
       d="m 169.8563,-64.504403 h 18.28297 v 5.779741 h -11.50823 v 5.521549 H 187.453 v 5.779742 h -10.82196 v 6.792664 h 11.89537 v 5.779741 H 169.8563 Z" />
    <path
       inkscape:connector-curvature="0"
       id="path1026"
       style="font-style:normal;font-variant:normal;font-weight:bold;font-stretch:normal;font-size:16.27110481px;line-height:1.25;font-family:STIXSizeTwoSym;-inkscape-font-specification:'STIXSizeTwoSym, Bold';font-variant-ligatures:normal;font-variant-caps:normal;font-variant-numeric:normal;font-feature-settings:normal;text-align:start;letter-spacing:0px;word-spacing:0px;writing-mode:lr-tb;text-anchor:start;fill:#ffffff;fill-opacity:1;stroke:#000000;stroke-width:0.50611508;stroke-miterlimit:4;stroke-dasharray:none;stroke-dashoffset:0;stroke-opacity:1"
       d="m 191.35949,-64.504403 h 24.21308 v 5.779741 h -8.71039 v 23.873696 h -6.77472 v -23.873696 h -8.72797 z" />
    <path
       inkscape:connector-curvature="0"
       id="path1028"
       style="font-style:normal;font-variant:normal;font-weight:bold;font-stretch:normal;font-size:16.27110481px;line-height:1.25;font-family:STIXSizeTwoSym;-inkscape-font-specification:'STIXSizeTwoSym, Bold';font-variant-ligatures:normal;font-variant-caps:normal;font-variant-numeric:normal;font-feature-settings:normal;text-align:start;letter-spacing:0px;word-spacing:0px;writing-mode:lr-tb;text-anchor:start;fill:#ffffff;fill-opacity:1;stroke:#000000;stroke-width:0.50611508;stroke-miterlimit:4;stroke-dasharray:none;stroke-dashoffset:0;stroke-opacity:1"
       d="m 215.39658,-64.504403 h 7.40821 l 5.98288,10.56641 5.98289,-10.56641 h 7.42582 l -10.01254,17.16048 v 12.492957 h -6.77472 v -12.492957 z" />
    <flowRoot
       xml:space="preserve"
       id="flowRoot946"
       style="fill:black;fill-opacity:1;stroke:none;font-family:sans-serif;font-style:normal;font-weight:normal;font-size:40px;line-height:1.25;letter-spacing:0px;word-spacing:0px"><flowRegion
         id="flowRegion948"><rect
           id="rect950"
           width="764.37738"
           height="119.05878"
           x="609.30084"
           y="745.78253" /></flowRegion><flowPara
         id="flowPara952" /></flowRoot>    <g
       aria-label="We Have Forwarded "
       transform="matrix(2.4339449,0,0,2.6679092,-416.36742,-1857.0749)"
       style="font-style:italic;font-variant:normal;font-weight:normal;font-stretch:normal;font-size:11.30691624px;line-height:1.25;font-family:'Hemi Head';-inkscape-font-specification:'Hemi Head, Italic';font-variant-ligatures:normal;font-variant-caps:normal;font-variant-numeric:normal;font-feature-settings:normal;text-align:start;letter-spacing:0px;word-spacing:0px;writing-mode:lr-tb;text-anchor:start;fill:#000703;fill-opacity:1;stroke:none"
       id="flowRoot1796">
      <path
         d="m 160.1543,697.57962 -0.28267,-5.46124 -2.7815,5.46124 h -1.92218 l -0.29398,-7.65479 h 1.76388 l 0.12438,5.60823 2.77019,-5.60823 h 1.71865 l 0.23745,5.59693 2.6119,-5.59693 h 1.68473 l -3.69737,7.65479 z"
         id="path1031"
         inkscape:connector-curvature="0" />
      <path
         d="m 165.94397,697.57962 q -0.4862,0 -0.70103,-0.1583 -0.20352,-0.1696 -0.20352,-0.52012 0,-0.1583 0.0565,-0.44097 l 0.73495,-3.48253 q 0.12438,-0.57665 0.40705,-0.84802 0.29398,-0.27136 0.91586,-0.27136 h 3.86697 q 0.42966,0 0.61057,0.1696 0.19222,0.1583 0.19222,0.4862 0,0.20352 -0.0452,0.41835 l -0.47489,2.25008 h -3.81043 l 0.19222,-0.94978 h 2.30661 l 0.1696,-0.76887 q 0.0113,-0.0565 0.0113,-0.14699 0,-0.0905 -0.0565,-0.12438 -0.0452,-0.0339 -0.18091,-0.0339 h -2.27269 q -0.19221,0 -0.26006,0.0678 -0.0678,0.0565 -0.11306,0.24876 l -0.53143,2.4649 q -0.0113,0.0565 -0.0226,0.10177 0,0.0339 0,0.0678 0,0.10176 0.0565,0.13568 0.0565,0.0339 0.20353,0.0339 h 3.85565 l -0.27136,1.3003 z"
         id="path1033"
         inkscape:connector-curvature="0" />
      <path
         d="m 181.50883,697.57962 h -1.71866 l 0.66711,-3.16594 h -2.99633 l -0.66711,3.16594 h -1.71865 l 1.61689,-7.65479 h 1.71865 l -0.64449,3.05287 h 2.99633 l 0.64449,-3.05287 h 1.71865 z"
         id="path1035"
         inkscape:connector-curvature="0" />
      <path
         d="m 183.72092,697.57962 q -0.42966,0 -0.62188,-0.1583 -0.19222,-0.1696 -0.19222,-0.4975 0,-0.1583 0.0565,-0.41836 l 0.28267,-1.35683 q 0.0678,-0.31659 0.1583,-0.53143 0.0905,-0.21483 0.22613,-0.3392 0.13569,-0.12438 0.3279,-0.16961 0.19222,-0.0565 0.46359,-0.0565 h 2.90588 l -0.20353,0.97239 h -2.08047 q -0.1583,0 -0.22614,0.0565 -0.0678,0.0565 -0.10176,0.23744 l -0.12438,0.59927 q -0.0113,0.0565 -0.0226,0.0905 0,0.0339 0,0.0678 0,0.14699 0.21483,0.14699 h 2.64582 l 0.59926,-2.80412 q 0.0113,-0.0452 0.0113,-0.12437 0,-0.0905 -0.0565,-0.13569 -0.0565,-0.0565 -0.21484,-0.0565 h -3.87827 l 0.26006,-1.24376 h 4.68107 q 0.4975,0 0.70102,0.1696 0.20353,0.1583 0.20353,0.50881 0,0.1583 -0.0565,0.44097 l -0.97239,4.60192 z"
         id="path1037"
         inkscape:connector-curvature="0" />
      <path
         d="m 191.50273,697.57962 -1.01763,-5.7213 h 1.70735 l 0.6558,4.16094 2.51013,-4.16094 h 1.6282 l -3.58429,5.7213 z"
         id="path1039"
         inkscape:connector-curvature="0" />
      <path
         d="m 197.34717,697.57962 q -0.4862,0 -0.70103,-0.1583 -0.20353,-0.1696 -0.20353,-0.52012 0,-0.1583 0.0565,-0.44097 l 0.73495,-3.48253 q 0.12437,-0.57665 0.40705,-0.84802 0.29398,-0.27136 0.91586,-0.27136 h 3.86696 q 0.42966,0 0.61058,0.1696 0.19221,0.1583 0.19221,0.4862 0,0.20352 -0.0452,0.41835 l -0.4749,2.25008 h -3.81043 l 0.19222,-0.94978 h 2.30661 l 0.16961,-0.76887 q 0.0113,-0.0565 0.0113,-0.14699 0,-0.0905 -0.0565,-0.12438 -0.0452,-0.0339 -0.18091,-0.0339 h -2.27269 q -0.19222,0 -0.26006,0.0678 -0.0678,0.0565 -0.11307,0.24876 l -0.53143,2.4649 q -0.0113,0.0565 -0.0226,0.10177 0,0.0339 0,0.0678 0,0.10176 0.0565,0.13568 0.0565,0.0339 0.20352,0.0339 h 3.85566 l -0.27137,1.3003 z"
         id="path1041"
         inkscape:connector-curvature="0" />
      <path
         d="m 208.89806,694.53806 -0.64449,3.04156 h -1.77519 l 1.18723,-5.58562 h 1.77518 l -0.27136,1.26637 h 2.88326 l -0.27136,1.27769 z m -1.11938,-3.10941 0.31659,-1.50382 h 5.66477 l -0.3166,1.50382 z"
         id="path1043"
         inkscape:connector-curvature="0" />
      <path
         d="m 213.82276,697.57962 q -0.47489,0 -0.68972,-0.1583 -0.20353,-0.1696 -0.20353,-0.52012 0,-0.1583 0.0565,-0.44097 l 0.73494,-3.48253 q 0.12438,-0.57665 0.40705,-0.84802 0.29398,-0.27136 0.90456,-0.27136 h 3.88958 q 0.4975,0 0.70102,0.1696 0.20353,0.1583 0.20353,0.50881 0,0.1583 -0.0565,0.44097 l -0.73494,3.48253 q -0.12438,0.57665 -0.41836,0.84802 -0.28267,0.27137 -0.90455,0.27137 z m 4.24009,-4.03657 q 0.0226,-0.11307 0.0226,-0.13569 0,-0.18091 -0.30528,-0.18091 h -2.23877 q -0.18091,0 -0.26006,0.0679 -0.0678,0.0565 -0.10176,0.24875 l -0.4862,2.32922 q -0.0113,0.0452 -0.0226,0.0792 0,0.0339 0,0.0678 0,0.1583 0.24875,0.1583 h 2.23877 q 0.20352,0 0.29398,-0.0678 0.0905,-0.0678 0.12437,-0.23745 z"
         id="path1045"
         inkscape:connector-curvature="0" />
      <path
         d="m 219.92637,697.57962 1.20984,-5.7213 h 1.53774 l -0.13568,0.62188 q 0.21483,-0.3279 0.47489,-0.47489 0.27136,-0.14699 0.64449,-0.14699 h 1.66212 l -0.29398,1.36813 h -2.284 q -0.1696,0 -0.26006,0.0679 -0.0791,0.0565 -0.12437,0.24875 l -0.84802,4.03657 z"
         id="path1047"
         inkscape:connector-curvature="0" />
      <path
         d="m 230.70381,697.57962 -0.35052,-3.96873 -2.17093,3.96873 h -1.9674 l -0.39574,-5.7213 h 1.74126 l 0.14699,4.0931 2.14832,-4.0931 h 1.86564 l 0.30528,4.08179 1.99002,-4.08179 h 1.67343 l -2.98503,5.7213 z"
         id="path1049"
         inkscape:connector-curvature="0" />
      <path
         d="m 236.01541,697.57962 q -0.42966,0 -0.62188,-0.1583 -0.19222,-0.1696 -0.19222,-0.4975 0,-0.1583 0.0565,-0.41836 l 0.28267,-1.35683 q 0.0678,-0.31659 0.1583,-0.53143 0.0904,-0.21483 0.22613,-0.3392 0.13569,-0.12438 0.3279,-0.16961 0.19222,-0.0565 0.46359,-0.0565 h 2.90588 l -0.20353,0.97239 h -2.08047 q -0.1583,0 -0.22614,0.0565 -0.0678,0.0565 -0.10176,0.23744 l -0.12438,0.59927 q -0.0113,0.0565 -0.0226,0.0905 0,0.0339 0,0.0678 0,0.14699 0.21483,0.14699 h 2.64582 l 0.59926,-2.80412 q 0.0113,-0.0452 0.0113,-0.12437 0,-0.0905 -0.0565,-0.13569 -0.0565,-0.0565 -0.21483,-0.0565 H 236.185 l 0.26006,-1.24376 h 4.68107 q 0.4975,0 0.70102,0.1696 0.20353,0.1583 0.20353,0.50881 0,0.1583 -0.0565,0.44097 l -0.97239,4.60192 z"
         id="path1051"
         inkscape:connector-curvature="0" />
      <path
         d="m 242.16478,697.57962 1.20984,-5.7213 h 1.53774 l -0.13568,0.62188 q 0.21483,-0.3279 0.47489,-0.47489 0.27136,-0.14699 0.64449,-0.14699 h 1.66212 l -0.29398,1.36813 h -2.284 q -0.1696,0 -0.26006,0.0679 -0.0791,0.0565 -0.12437,0.24875 l -0.84802,4.03657 z"
         id="path1053"
         inkscape:connector-curvature="0" />
      <path
         d="m 248.31769,697.57962 q -0.47489,0 -0.68972,-0.1583 -0.20353,-0.1696 -0.20353,-0.52012 0,-0.1583 0.0565,-0.44097 l 0.73494,-3.48253 q 0.12438,-0.57665 0.44097,-0.84802 0.32791,-0.27136 0.87064,-0.27136 h 2.70235 l -0.29398,1.36813 h -1.88825 q -0.18092,0 -0.26006,0.0679 -0.0678,0.0565 -0.11307,0.24875 l -0.4862,2.31792 q -0.0226,0.11306 -0.0226,0.14699 0,0.1696 0.26006,0.1696 h 2.4536 l 1.42467,-6.71631 h 1.59427 l -1.71865,8.11837 z"
         id="path1055"
         inkscape:connector-curvature="0" />
      <path
         d="m 255.38344,697.57962 q -0.48619,0 -0.70102,-0.1583 -0.20353,-0.1696 -0.20353,-0.52012 0,-0.1583 0.0565,-0.44097 l 0.73495,-3.48253 q 0.12437,-0.57665 0.40704,-0.84802 0.29398,-0.27136 0.91586,-0.27136 h 3.86697 q 0.42966,0 0.61057,0.1696 0.19222,0.1583 0.19222,0.4862 0,0.20352 -0.0452,0.41835 l -0.47489,2.25008 h -3.81043 l 0.19222,-0.94978 h 2.30661 l 0.1696,-0.76887 q 0.0113,-0.0565 0.0113,-0.14699 0,-0.0905 -0.0565,-0.12438 -0.0452,-0.0339 -0.18091,-0.0339 h -2.27269 q -0.19222,0 -0.26006,0.0678 -0.0678,0.0565 -0.11307,0.24876 l -0.53143,2.4649 q -0.0113,0.0565 -0.0226,0.10177 0,0.0339 0,0.0678 0,0.10176 0.0565,0.13568 0.0565,0.0339 0.20353,0.0339 h 3.85566 l -0.27137,1.3003 z"
         id="path1057"
         inkscape:connector-curvature="0" />
      <path
         d="m 262.40716,697.57962 q -0.47489,0 -0.68972,-0.1583 -0.20352,-0.1696 -0.20352,-0.52012 0,-0.1583 0.0565,-0.44097 l 0.73495,-3.48253 q 0.12438,-0.57665 0.44097,-0.84802 0.3279,-0.27136 0.87063,-0.27136 h 2.70236 l -0.29398,1.36813 h -1.88826 q -0.18091,0 -0.26006,0.0679 -0.0678,0.0565 -0.11307,0.24875 l -0.48619,2.31792 q -0.0226,0.11306 -0.0226,0.14699 0,0.1696 0.26006,0.1696 h 2.4536 l 1.42467,-6.71631 h 1.59428 l -1.71865,8.11837 z"
         id="path1059"
         inkscape:connector-curvature="0" />
    </g>
    <rect
       style="opacity:1;fill:none;fill-opacity:1;stroke:#ff0707;stroke-width:0.06345528;stroke-linecap:square;stroke-linejoin:round;stroke-miterlimit:4;stroke-dasharray:none;stroke-dashoffset:0;stroke-opacity:1;paint-order:markers fill stroke"
       id="rect992"
       width="26.367432"
       height="26.367432"
       x="213.84608"
       y="13.602537" />
    <g
       aria-label="Without A Lost Packet"
       transform="matrix(2.4339449,0,0,2.6679092,-425.97072,-1748.5952)"
       style="font-style:italic;font-variant:normal;font-weight:normal;font-stretch:normal;font-size:11.30691624px;line-height:1.25;font-family:'Hemi Head';-inkscape-font-specification:'Hemi Head, Italic';font-variant-ligatures:normal;font-variant-caps:normal;font-variant-numeric:normal;font-feature-settings:normal;text-align:start;letter-spacing:0px;word-spacing:0px;writing-mode:lr-tb;text-anchor:start;fill:#000703;fill-opacity:1;stroke:none"
       id="flowRoot964">
      <path
         d="m 160.1543,697.57962 -0.28267,-5.46124 -2.7815,5.46124 h -1.92218 l -0.29398,-7.65479 h 1.76388 l 0.12438,5.60823 2.77019,-5.60823 h 1.71865 l 0.23745,5.59693 2.6119,-5.59693 h 1.68473 l -3.69737,7.65479 z"
         id="path1062"
         inkscape:connector-curvature="0" />
      <path
         d="m 164.99419,697.57962 1.20984,-5.7213 h 1.58297 l -1.20984,5.7213 z m 1.35683,-6.39972 0.36182,-1.71865 h 1.59428 l -0.36182,1.71865 z"
         id="path1064"
         inkscape:connector-curvature="0" />
      <path
         d="m 168.88271,697.57962 q -0.47489,0 -0.68972,-0.1583 -0.20353,-0.1696 -0.20353,-0.52012 0,-0.1583 0.0565,-0.44097 l 1.3116,-6.19619 h 1.58297 l -0.33921,1.59428 h 1.37945 l -0.26006,1.24376 h -1.37945 l -0.62188,2.92849 q -0.0226,0.11307 -0.0226,0.14699 0,0.1583 0.24875,0.1583 h 1.04024 l -0.26006,1.24376 z"
         id="path1066"
         inkscape:connector-curvature="0" />
      <path
         d="m 176.28644,697.57962 0.84802,-4.03657 q 0.0226,-0.11307 0.0226,-0.13569 0,-0.18091 -0.28268,-0.18091 h -2.36314 q -0.16961,0 -0.24875,0.0679 -0.0791,0.0565 -0.12438,0.24875 l -0.84802,4.03657 h -1.58297 l 1.71865,-8.11837 h 1.58297 l -0.64449,3.01895 q 0.22614,-0.3279 0.4862,-0.47489 0.27136,-0.14699 0.63318,-0.14699 h 2.51014 q 0.46358,0 0.66711,0.15829 0.21483,0.1583 0.21483,0.53143 0,0.21483 -0.0452,0.42966 l -0.9724,4.60192 z"
         id="path1068"
         inkscape:connector-curvature="0" />
      <path
         d="m 180.07868,697.57962 q -0.47489,0 -0.68972,-0.1583 -0.20353,-0.1696 -0.20353,-0.52012 0,-0.1583 0.0565,-0.44097 l 0.73495,-3.48253 q 0.12437,-0.57665 0.40704,-0.84802 0.29398,-0.27136 0.90456,-0.27136 h 3.88958 q 0.4975,0 0.70103,0.1696 0.20352,0.1583 0.20352,0.50881 0,0.1583 -0.0565,0.44097 l -0.73495,3.48253 q -0.12438,0.57665 -0.41836,0.84802 -0.28267,0.27137 -0.90455,0.27137 z m 4.24009,-4.03657 q 0.0226,-0.11307 0.0226,-0.13569 0,-0.18091 -0.30528,-0.18091 h -2.23877 q -0.18091,0 -0.26006,0.0679 -0.0678,0.0565 -0.10176,0.24875 l -0.4862,2.32922 q -0.0113,0.0452 -0.0226,0.0792 0,0.0339 0,0.0678 0,0.1583 0.24875,0.1583 h 2.23877 q 0.20352,0 0.29398,-0.0678 0.0905,-0.0678 0.12437,-0.23745 z"
         id="path1070"
         inkscape:connector-curvature="0" />
      <path
         d="m 190.72767,697.57962 0.12438,-0.61058 q -0.21483,0.3279 -0.4862,0.47489 -0.26006,0.13569 -0.62188,0.13569 h -2.48752 q -0.45228,0 -0.67841,-0.1583 -0.21484,-0.1583 -0.21484,-0.53143 0,-0.1696 0.0565,-0.42966 l 0.97239,-4.60191 h 1.58297 l -0.85932,4.03657 q -0.0226,0.11307 -0.0226,0.14699 0,0.18091 0.27137,0.18091 h 2.27269 q 0.18091,0 0.26006,-0.0678 0.0791,-0.0679 0.12437,-0.26006 l 0.85933,-4.03657 h 1.58297 l -1.20984,5.7213 z"
         id="path1072"
         inkscape:connector-curvature="0" />
      <path
         d="m 194.49994,697.57962 q -0.47489,0 -0.68972,-0.1583 -0.20352,-0.1696 -0.20352,-0.52012 0,-0.1583 0.0565,-0.44097 l 1.3116,-6.19619 h 1.58297 l -0.33921,1.59428 h 1.37945 l -0.26006,1.24376 h -1.37945 l -0.62188,2.92849 q -0.0226,0.11307 -0.0226,0.14699 0,0.1583 0.24875,0.1583 h 1.04024 l -0.26006,1.24376 z"
         id="path1074"
         inkscape:connector-curvature="0" />
      <path
         d="m 205.09664,697.57962 -0.0791,-1.18723 h -2.75889 l -0.58796,1.18723 h -1.66212 l 3.98004,-7.65479 h 2.25007 l 0.58796,7.65479 z m -0.37312,-6.11705 -1.85434,3.66345 h 2.09178 z"
         id="path1076"
         inkscape:connector-curvature="0" />
      <path
         d="m 215.88468,697.57962 h -5.13334 l 1.61688,-7.65479 h 1.71866 l -1.28899,6.10574 h 3.41469 z"
         id="path1078"
         inkscape:connector-curvature="0" />
      <path
         d="m 217.8641,697.57962 q -0.47489,0 -0.68973,-0.1583 -0.20352,-0.1696 -0.20352,-0.52012 0,-0.1583 0.0565,-0.44097 l 0.73494,-3.48253 q 0.12438,-0.57665 0.40705,-0.84802 0.29398,-0.27136 0.90456,-0.27136 h 3.88958 q 0.4975,0 0.70102,0.1696 0.20353,0.1583 0.20353,0.50881 0,0.1583 -0.0565,0.44097 l -0.73494,3.48253 q -0.12438,0.57665 -0.41836,0.84802 -0.28267,0.27137 -0.90455,0.27137 z m 4.24009,-4.03657 q 0.0226,-0.11307 0.0226,-0.13569 0,-0.18091 -0.30528,-0.18091 h -2.23877 q -0.18091,0 -0.26006,0.0679 -0.0678,0.0565 -0.10176,0.24875 l -0.4862,2.32922 q -0.0113,0.0452 -0.0226,0.0792 0,0.0339 0,0.0678 0,0.1583 0.24875,0.1583 h 2.23877 q 0.20352,0 0.29398,-0.0678 0.0905,-0.0678 0.12437,-0.23745 z"
         id="path1080"
         inkscape:connector-curvature="0" />
      <path
         d="m 223.97902,697.57962 0.27137,-1.31161 h 3.9235 q 0.18091,0 0.23744,-0.0565 0.0678,-0.0565 0.10176,-0.21483 l 0.12438,-0.56535 q 0.0113,-0.0339 0.0113,-0.0904 0,-0.14699 -0.22614,-0.14699 h -3.06418 q -0.38443,0 -0.56534,-0.14699 -0.16961,-0.1583 -0.16961,-0.41836 0,-0.11307 0.0339,-0.24875 l 0.3166,-1.52643 q 0.10176,-0.50882 0.38443,-0.74626 0.28268,-0.24875 0.88194,-0.24875 h 4.72629 l -0.27136,1.27768 h -3.90089 q -0.18091,0 -0.26006,0.0678 -0.0791,0.0678 -0.11307,0.23745 l -0.10176,0.47489 q -0.0113,0.0339 -0.0113,0.10176 0,0.18091 0.23745,0.18091 h 3.09809 q 0.39575,0 0.56535,0.1583 0.18091,0.15829 0.18091,0.41835 0,0.0565 -0.0113,0.11307 0,0.0565 -0.0113,0.11307 l -0.33921,1.58297 q -0.11307,0.50881 -0.39574,0.75756 -0.28268,0.23745 -0.88194,0.23745 z"
         id="path1082"
         inkscape:connector-curvature="0" />
      <path
         d="m 232.06452,697.57962 q -0.47489,0 -0.68972,-0.1583 -0.20353,-0.1696 -0.20353,-0.52012 0,-0.1583 0.0565,-0.44097 l 1.3116,-6.19619 h 1.58297 l -0.33921,1.59428 h 1.37945 l -0.26006,1.24376 h -1.37945 l -0.62188,2.92849 q -0.0226,0.11307 -0.0226,0.14699 0,0.1583 0.24875,0.1583 h 1.04024 l -0.26006,1.24376 z"
         id="path1084"
         inkscape:connector-curvature="0" />
      <path
         d="m 240.26415,695.11471 -0.52011,2.46491 h -1.71866 l 1.18723,-5.59693 h 1.71865 l -0.37313,1.74127 h 2.36315 q 0.21483,0 0.29398,-0.0905 0.0905,-0.0905 0.14699,-0.35051 l 0.3279,-1.50382 q 0.0226,-0.11307 0.0226,-0.1583 0,-0.12437 -0.0791,-0.1583 -0.0678,-0.0452 -0.22613,-0.0452 h -4.0818 l 0.31659,-1.49252 h 4.79414 q 0.57665,0 0.8254,0.20353 0.24875,0.20352 0.24875,0.63319 0,0.11307 -0.0226,0.23744 -0.0113,0.11307 -0.0339,0.26006 l -0.53143,2.52144 q -0.14699,0.67842 -0.4975,1.00632 -0.35052,0.3279 -1.08547,0.3279 z"
         id="path1086"
         inkscape:connector-curvature="0" />
      <path
         d="m 246.1298,697.57962 q -0.42967,0 -0.62188,-0.1583 -0.19222,-0.1696 -0.19222,-0.4975 0,-0.1583 0.0565,-0.41836 l 0.28268,-1.35683 q 0.0678,-0.31659 0.15829,-0.53143 0.0905,-0.21483 0.22614,-0.3392 0.13568,-0.12438 0.3279,-0.16961 0.19222,-0.0565 0.46359,-0.0565 h 2.90587 l -0.20352,0.97239 h -2.08047 q -0.1583,0 -0.22614,0.0565 -0.0678,0.0565 -0.10176,0.23744 l -0.12438,0.59927 q -0.0113,0.0565 -0.0226,0.0905 0,0.0339 0,0.0678 0,0.14699 0.21483,0.14699 h 2.64582 l 0.59926,-2.80412 q 0.0113,-0.0452 0.0113,-0.12437 0,-0.0905 -0.0565,-0.13569 -0.0565,-0.0565 -0.21483,-0.0565 h -3.87827 l 0.26006,-1.24376 h 4.68106 q 0.49751,0 0.70103,0.1696 0.20353,0.1583 0.20353,0.50881 0,0.1583 -0.0565,0.44097 l -0.97239,4.60192 z"
         id="path1088"
         inkscape:connector-curvature="0" />
      <path
         d="m 253.33071,697.57962 q -0.47489,0 -0.68972,-0.1583 -0.20353,-0.1696 -0.20353,-0.52012 0,-0.1583 0.0565,-0.44097 l 0.73495,-3.48253 q 0.12437,-0.57665 0.40705,-0.84802 0.29398,-0.27136 0.90455,-0.27136 h 4.03657 l -0.29398,1.39075 h -3.22247 q -0.19222,0 -0.26006,0.0565 -0.0678,0.0565 -0.11307,0.24875 l -0.4862,2.284 q -0.0113,0.0452 -0.0226,0.0792 0,0.0339 0,0.0678 0,0.16961 0.26006,0.16961 h 3.22247 l -0.29398,1.42467 z"
         id="path1090"
         inkscape:connector-curvature="0" />
      <path
         d="m 258.44109,697.57962 1.71865,-8.11837 h 1.59427 l -1.71865,8.11837 z m 4.56799,0 0.39574,-1.89957 q 0.0113,-0.0565 0.0113,-0.10176 0.0113,-0.0565 0.0113,-0.10176 0,-0.13568 -0.0791,-0.19222 -0.0792,-0.0565 -0.27137,-0.0565 h -2.26138 l 0.12437,-0.57665 2.97372,-2.79281 h 1.74127 l -2.51014,2.2953 h 1.09677 q 0.85933,0 0.85933,0.79148 0,0.20353 -0.0452,0.41836 l -0.46358,2.21616 z"
         id="path1092"
         inkscape:connector-curvature="0" />
      <path
         d="m 266.73453,697.57962 q -0.48619,0 -0.70102,-0.1583 -0.20353,-0.1696 -0.20353,-0.52012 0,-0.1583 0.0565,-0.44097 l 0.73494,-3.48253 q 0.12438,-0.57665 0.40705,-0.84802 0.29398,-0.27136 0.91586,-0.27136 h 3.86697 q 0.42966,0 0.61057,0.1696 0.19222,0.1583 0.19222,0.4862 0,0.20352 -0.0452,0.41835 l -0.47489,2.25008 h -3.81043 l 0.19222,-0.94978 h 2.30661 l 0.1696,-0.76887 q 0.0113,-0.0565 0.0113,-0.14699 0,-0.0905 -0.0565,-0.12438 -0.0452,-0.0339 -0.18091,-0.0339 h -2.27269 q -0.19222,0 -0.26006,0.0678 -0.0679,0.0565 -0.11307,0.24876 l -0.53143,2.4649 q -0.0113,0.0565 -0.0226,0.10177 0,0.0339 0,0.0678 0,0.10176 0.0565,0.13568 0.0565,0.0339 0.20353,0.0339 h 3.85566 l -0.27137,1.3003 z"
         id="path1094"
         inkscape:connector-curvature="0" />
      <path
         d="m 273.78086,697.57962 q -0.47489,0 -0.68972,-0.1583 -0.20353,-0.1696 -0.20353,-0.52012 0,-0.1583 0.0565,-0.44097 l 1.3116,-6.19619 h 1.58297 l -0.33921,1.59428 h 1.37945 l -0.26006,1.24376 h -1.37945 l -0.62188,2.92849 q -0.0226,0.11307 -0.0226,0.14699 0,0.1583 0.24875,0.1583 h 1.04024 l -0.26006,1.24376 z"
         id="path1096"
         inkscape:connector-curvature="0" />
    </g>
    <g
       aria-label="ALWAYS RPKI"
       transform="matrix(2.0461751,0,0,2.3095452,-497.79067,-146.58288)"
       style="font-style:normal;font-variant:normal;font-weight:bold;font-stretch:normal;font-size:16.27110481px;line-height:1.25;font-family:STIXSizeTwoSym;-inkscape-font-specification:'STIXSizeTwoSym, Bold';font-variant-ligatures:normal;font-variant-caps:normal;font-variant-numeric:normal;font-feature-settings:normal;text-align:start;letter-spacing:0px;word-spacing:0px;writing-mode:lr-tb;text-anchor:start;fill:#ffffff;fill-opacity:1;stroke:#000000;stroke-width:0.21508642;stroke-miterlimit:4;stroke-dasharray:none;stroke-dashoffset:0;stroke-opacity:1"
       id="flowRoot986">
      <path
         d="m 239.69169,131.13355 h -4.78281 l -0.75476,2.161 h -3.07467 l 4.39351,-11.8617 h 3.6467 l 4.39352,11.8617 h -3.07467 z m -4.0201,-2.20073 h 3.24945 l -1.62075,-4.71926 z"
         style="font-style:normal;font-variant:normal;font-weight:bold;font-stretch:normal;font-size:16.27110481px;font-family:STIXSizeTwoSym;-inkscape-font-specification:'STIXSizeTwoSym, Bold';font-variant-ligatures:normal;font-variant-caps:normal;font-variant-numeric:normal;font-feature-settings:normal;text-align:start;writing-mode:lr-tb;text-anchor:start;stroke:#000000;stroke-width:0.21508642;stroke-miterlimit:4;stroke-dasharray:none;stroke-dashoffset:0;stroke-opacity:1"
         id="path1099"
         inkscape:connector-curvature="0" />
      <path
         d="m 245.07832,121.43285 h 3.05878 v 9.54974 h 5.37073 v 2.31196 h -8.42951 z"
         style="font-style:normal;font-variant:normal;font-weight:bold;font-stretch:normal;font-size:16.27110481px;font-family:STIXSizeTwoSym;-inkscape-font-specification:'STIXSizeTwoSym, Bold';font-variant-ligatures:normal;font-variant-caps:normal;font-variant-numeric:normal;font-feature-settings:normal;text-align:start;writing-mode:lr-tb;text-anchor:start;stroke:#000000;stroke-width:0.21508642;stroke-miterlimit:4;stroke-dasharray:none;stroke-dashoffset:0;stroke-opacity:1"
         id="path1101"
         inkscape:connector-curvature="0" />
      <path
         d="m 253.15826,121.43285 h 2.93166 l 2.04977,8.62019 2.03389,-8.62019 h 2.94755 l 2.03389,8.62019 2.04978,-8.62019 h 2.90782 l -2.79659,11.8617 h -3.52753 l -2.15306,-9.01743 -2.12923,9.01743 h -3.52752 z"
         style="font-style:normal;font-variant:normal;font-weight:bold;font-stretch:normal;font-size:16.27110481px;font-family:STIXSizeTwoSym;-inkscape-font-specification:'STIXSizeTwoSym, Bold';font-variant-ligatures:normal;font-variant-caps:normal;font-variant-numeric:normal;font-feature-settings:normal;text-align:start;writing-mode:lr-tb;text-anchor:start;stroke:#000000;stroke-width:0.21508642;stroke-miterlimit:4;stroke-dasharray:none;stroke-dashoffset:0;stroke-opacity:1"
         id="path1103"
         inkscape:connector-curvature="0" />
      <path
         d="m 278.5898,131.13355 h -4.78281 l -0.75477,2.161 h -3.07466 l 4.39351,-11.8617 h 3.6467 l 4.39352,11.8617 h -3.07467 z m -4.0201,-2.20073 h 3.24945 l -1.62075,-4.71926 z"
         style="font-style:normal;font-variant:normal;font-weight:bold;font-stretch:normal;font-size:16.27110481px;font-family:STIXSizeTwoSym;-inkscape-font-specification:'STIXSizeTwoSym, Bold';font-variant-ligatures:normal;font-variant-caps:normal;font-variant-numeric:normal;font-feature-settings:normal;text-align:start;writing-mode:lr-tb;text-anchor:start;stroke:#000000;stroke-width:0.21508642;stroke-miterlimit:4;stroke-dasharray:none;stroke-dashoffset:0;stroke-opacity:1"
         id="path1105"
         inkscape:connector-curvature="0" />
      <path
         d="m 280.7667,121.43285 h 3.34479 l 2.70126,4.22668 2.70126,-4.22668 h 3.35274 l -4.52064,6.86438 v 4.99732 h -3.05878 v -4.99732 z"
         style="font-style:normal;font-variant:normal;font-weight:bold;font-stretch:normal;font-size:16.27110481px;font-family:STIXSizeTwoSym;-inkscape-font-specification:'STIXSizeTwoSym, Bold';font-variant-ligatures:normal;font-variant-caps:normal;font-variant-numeric:normal;font-feature-settings:normal;text-align:start;writing-mode:lr-tb;text-anchor:start;stroke:#000000;stroke-width:0.21508642;stroke-miterlimit:4;stroke-dasharray:none;stroke-dashoffset:0;stroke-opacity:1"
         id="path1107"
         inkscape:connector-curvature="0" />
      <path
         d="m 302.46415,121.80626 v 2.51058 q -0.97722,-0.43697 -1.90677,-0.65942 -0.92955,-0.22246 -1.75582,-0.22246 -1.09639,0 -1.62075,0.30191 -0.52436,0.3019 -0.52436,0.93749 0,0.47669 0.34957,0.74682 0.35752,0.26218 1.28707,0.45286 l 1.30296,0.26218 q 1.97828,0.39724 2.81249,1.20762 0.83421,0.81038 0.83421,2.30401 0,1.96239 -1.1679,2.92372 -1.15995,0.95338 -3.55136,0.95338 -1.12817,0 -2.26429,-0.21451 -1.13611,-0.21451 -2.27223,-0.63559 v -2.58208 q 1.13612,0.60381 2.19279,0.91366 1.06461,0.3019 2.04977,0.3019 1.00106,0 1.53336,-0.33368 0.53231,-0.33369 0.53231,-0.95339 0,-0.55614 -0.36546,-0.85804 -0.35752,-0.30191 -1.43803,-0.54026 l -1.18378,-0.26218 q -1.77965,-0.38135 -2.60592,-1.21556 -0.81832,-0.83421 -0.81832,-2.2484 0,-1.77171 1.14406,-2.72509 1.14406,-0.95339 3.28918,-0.95339 0.97722,0 2.01005,0.15095 1.03283,0.14301 2.13717,0.43697 z"
         style="font-style:normal;font-variant:normal;font-weight:bold;font-stretch:normal;font-size:16.27110481px;font-family:STIXSizeTwoSym;-inkscape-font-specification:'STIXSizeTwoSym, Bold';font-variant-ligatures:normal;font-variant-caps:normal;font-variant-numeric:normal;font-feature-settings:normal;text-align:start;writing-mode:lr-tb;text-anchor:start;stroke:#000000;stroke-width:0.21508642;stroke-miterlimit:4;stroke-dasharray:none;stroke-dashoffset:0;stroke-opacity:1"
         id="path1109"
         inkscape:connector-curvature="0" />
      <path
         d="m 315.93867,126.69236 q 0.96133,0 1.37446,-0.35752 0.42108,-0.35752 0.42108,-1.17584 0,-0.81038 -0.42108,-1.15995 -0.41313,-0.34958 -1.37446,-0.34958 h -1.28707 v 3.04289 z m -1.28707,2.11334 v 4.48885 h -3.05878 v -11.8617 h 4.67159 q 2.34373,0 3.43218,0.78655 1.09639,0.78654 1.09639,2.48674 0,1.17584 -0.57203,1.93061 -0.56408,0.75476 -1.70814,1.11228 0.62764,0.14301 1.12022,0.65148 0.50053,0.50053 1.009,1.52541 l 1.66048,3.36863 h -3.2574 l -1.44597,-2.94755 q -0.43696,-0.88982 -0.88982,-1.21556 -0.44491,-0.32574 -1.19173,-0.32574 z"
         style="font-style:normal;font-variant:normal;font-weight:bold;font-stretch:normal;font-size:16.27110481px;font-family:STIXSizeTwoSym;-inkscape-font-specification:'STIXSizeTwoSym, Bold';font-variant-ligatures:normal;font-variant-caps:normal;font-variant-numeric:normal;font-feature-settings:normal;text-align:start;writing-mode:lr-tb;text-anchor:start;stroke:#000000;stroke-width:0.21508642;stroke-miterlimit:4;stroke-dasharray:none;stroke-dashoffset:0;stroke-opacity:1"
         id="path1111"
         inkscape:connector-curvature="0" />
      <path
         d="m 324.11394,121.43285 h 5.07677 q 2.26429,0 3.47191,1.009 1.21557,1.00106 1.21557,2.86016 0,1.86704 -1.21557,2.87604 -1.20762,1.00106 -3.47191,1.00106 h -2.018 v 4.11544 h -3.05877 z m 3.05877,2.21662 v 3.31302 h 1.69226 q 0.88983,0 1.37447,-0.42903 0.48463,-0.43697 0.48463,-1.23145 0,-0.79449 -0.48463,-1.22351 -0.48464,-0.42903 -1.37447,-0.42903 z"
         style="font-style:normal;font-variant:normal;font-weight:bold;font-stretch:normal;font-size:16.27110481px;font-family:STIXSizeTwoSym;-inkscape-font-specification:'STIXSizeTwoSym, Bold';font-variant-ligatures:normal;font-variant-caps:normal;font-variant-numeric:normal;font-feature-settings:normal;text-align:start;writing-mode:lr-tb;text-anchor:start;stroke:#000000;stroke-width:0.21508642;stroke-miterlimit:4;stroke-dasharray:none;stroke-dashoffset:0;stroke-opacity:1"
         id="path1113"
         inkscape:connector-curvature="0" />
      <path
         d="m 336.03125,121.43285 h 3.05878 v 4.32996 l 4.4094,-4.32996 h 3.55136 l -5.71236,5.61703 6.30028,6.24467 h -3.82943 l -4.71925,-4.67159 v 4.67159 h -3.05878 z"
         style="font-style:normal;font-variant:normal;font-weight:bold;font-stretch:normal;font-size:16.27110481px;font-family:STIXSizeTwoSym;-inkscape-font-specification:'STIXSizeTwoSym, Bold';font-variant-ligatures:normal;font-variant-caps:normal;font-variant-numeric:normal;font-feature-settings:normal;text-align:start;writing-mode:lr-tb;text-anchor:start;stroke:#000000;stroke-width:0.21508642;stroke-miterlimit:4;stroke-dasharray:none;stroke-dashoffset:0;stroke-opacity:1"
         id="path1115"
         inkscape:connector-curvature="0" />
      <path
         d="m 348.64771,121.43285 h 3.05878 v 11.8617 h -3.05878 z"
         style="font-style:normal;font-variant:normal;font-weight:bold;font-stretch:normal;font-size:16.27110481px;font-family:STIXSizeTwoSym;-inkscape-font-specification:'STIXSizeTwoSym, Bold';font-variant-ligatures:normal;font-variant-caps:normal;font-variant-numeric:normal;font-feature-settings:normal;text-align:start;writing-mode:lr-tb;text-anchor:start;stroke:#000000;stroke-width:0.21508642;stroke-miterlimit:4;stroke-dasharray:none;stroke-dashoffset:0;stroke-opacity:1"
         id="path1117"
         inkscape:connector-curvature="0" />
    </g>
    <g
       id="g1434"
       transform="matrix(0.28090534,0,0,0.28090534,-55.403397,132.90828)"
       style="fill:#ffe200;fill-opacity:1">
      <g
         id="g1376"
         style="fill:#ffe200;fill-opacity:1">
        <g
           id="g1374"
           style="fill:#ffe200;fill-opacity:1">
          <path
             id="path1370"
             d="m 68.789,54.943 c 0,-4.256 -0.007,-9.083 -0.007,-11.324 0,-10.859 -8.832,-19.694 -19.691,-19.694 -10.858,0 -19.698,8.835 -19.698,19.694 0,2.256 -0.003,7.08 -0.009,11.324 -5.146,0 -9.317,4.17 -9.317,9.314 v 24.594 c 0,5.145 4.171,9.314 9.317,9.314 h 39.4 c 5.146,0 9.317,-4.17 9.317,-9.314 V 64.254 c 0,-5.141 -4.172,-9.311 -9.312,-9.311 z M 52.666,76.789 v 7.691 c 0,1.979 -1.602,3.582 -3.582,3.582 -1.977,0 -3.581,-1.604 -3.581,-3.582 v -7.691 c -1.747,-1.164 -2.901,-3.146 -2.901,-5.402 0,-3.578 2.904,-6.482 6.482,-6.482 3.582,0 6.486,2.904 6.486,6.482 0,2.254 -1.154,4.238 -2.904,5.402 z M 36.888,54.943 c 0.006,-4.246 0.013,-9.066 0.013,-11.326 0,-6.719 5.466,-12.186 12.189,-12.186 6.716,0 12.184,5.467 12.184,12.186 0,2.238 0.006,7.066 0.006,11.326 z"
             inkscape:connector-curvature="0"
             style="fill:#ffe200;fill-opacity:1" />
          <path
             id="path1372"
             d="m 77.007,14.234 c -0.695,-0.06 -1.334,-0.415 -1.75,-0.976 -3.791,-5.102 -9.856,-8.246 -16.31,-8.246 -0.396,0 -0.793,0.012 -1.188,0.035 C 57.181,5.081 56.613,4.909 56.151,4.561 52.218,1.603 47.46,0 42.476,0 33.546,0 25.618,5.166 21.9,12.992 c -0.351,0.74 -1.051,1.253 -1.861,1.369 -9.84,1.402 -17.43,9.883 -17.43,20.103 0,10.296 7.709,18.806 17.656,20.11 1.444,-1.359 3.186,-2.407 5.123,-3.018 10e-4,-1.699 0.003,-3.354 0.004,-4.789 h -2.478 c -6.785,0 -12.305,-5.52 -12.305,-12.305 0,-6.785 5.52,-12.305 12.305,-12.305 0.343,0 0.68,0.027 1.015,0.055 1.955,0.151 3.726,-1.117 4.202,-3.014 C 29.786,12.605 35.685,8 42.475,8 c 3.88,0 7.552,1.499 10.339,4.219 0.953,0.929 2.307,1.325 3.609,1.053 0.83,-0.173 1.68,-0.261 2.524,-0.261 4.75,0 8.993,2.671 11.071,6.97 0.73,1.512 2.328,2.411 3.999,2.239 0.416,-0.042 0.831,-0.063 1.233,-0.063 6.785,0 12.306,5.52 12.306,12.305 0,6.785 -5.521,12.305 -12.306,12.305 h -2.47 l 0.002,4.789 c 1.937,0.611 3.677,1.658 5.12,3.017 9.944,-1.305 17.653,-9.815 17.653,-20.11 C 95.558,23.859 87.384,15.126 77.007,14.234 Z"
             inkscape:connector-curvature="0"
             style="fill:#ffe200;fill-opacity:1" />
        </g>
      </g>
      <g
         id="g1378"
         style="fill:#ffe200;fill-opacity:1" />
      <g
         id="g1380"
         style="fill:#ffe200;fill-opacity:1" />
      <g
         id="g1382"
         style="fill:#ffe200;fill-opacity:1" />
      <g
         id="g1384"
         style="fill:#ffe200;fill-opacity:1" />
      <g
         id="g1386"
         style="fill:#ffe200;fill-opacity:1" />
      <g
         id="g1388"
         style="fill:#ffe200;fill-opacity:1" />
      <g
         id="g1390"
         style="fill:#ffe200;fill-opacity:1" />
      <g
         id="g1392"
         style="fill:#ffe200;fill-opacity:1" />
      <g
         id="g1394"
         style="fill:#ffe200;fill-opacity:1" />
      <g
         id="g1396"
         style="fill:#ffe200;fill-opacity:1" />
      <g
         id="g1398"
         style="fill:#ffe200;fill-opacity:1" />
      <g
         id="g1400"
         style="fill:#ffe200;fill-opacity:1" />
      <g
         id="g1402"
         style="fill:#ffe200;fill-opacity:1" />
      <g
         id="g1404"
         style="fill:#ffe200;fill-opacity:1" />
      <g
         id="g1406"
         style="fill:#ffe200;fill-opacity:1" />
    </g>
    <g
       style="fill:#ffe200;fill-opacity:1"
       transform="matrix(0.28090534,0,0,0.28090534,227.17173,132.90828)"
       id="g1642">
      <g
         style="fill:#ffe200;fill-opacity:1"
         id="g1610">
        <g
           style="fill:#ffe200;fill-opacity:1"
           id="g1608">
          <path
             style="fill:#ffe200;fill-opacity:1"
             inkscape:connector-curvature="0"
             d="m 68.789,54.943 c 0,-4.256 -0.007,-9.083 -0.007,-11.324 0,-10.859 -8.832,-19.694 -19.691,-19.694 -10.858,0 -19.698,8.835 -19.698,19.694 0,2.256 -0.003,7.08 -0.009,11.324 -5.146,0 -9.317,4.17 -9.317,9.314 v 24.594 c 0,5.145 4.171,9.314 9.317,9.314 h 39.4 c 5.146,0 9.317,-4.17 9.317,-9.314 V 64.254 c 0,-5.141 -4.172,-9.311 -9.312,-9.311 z M 52.666,76.789 v 7.691 c 0,1.979 -1.602,3.582 -3.582,3.582 -1.977,0 -3.581,-1.604 -3.581,-3.582 v -7.691 c -1.747,-1.164 -2.901,-3.146 -2.901,-5.402 0,-3.578 2.904,-6.482 6.482,-6.482 3.582,0 6.486,2.904 6.486,6.482 0,2.254 -1.154,4.238 -2.904,5.402 z M 36.888,54.943 c 0.006,-4.246 0.013,-9.066 0.013,-11.326 0,-6.719 5.466,-12.186 12.189,-12.186 6.716,0 12.184,5.467 12.184,12.186 0,2.238 0.006,7.066 0.006,11.326 z"
             id="path1604" />
          <path
             style="fill:#ffe200;fill-opacity:1"
             inkscape:connector-curvature="0"
             d="m 77.007,14.234 c -0.695,-0.06 -1.334,-0.415 -1.75,-0.976 -3.791,-5.102 -9.856,-8.246 -16.31,-8.246 -0.396,0 -0.793,0.012 -1.188,0.035 C 57.181,5.081 56.613,4.909 56.151,4.561 52.218,1.603 47.46,0 42.476,0 33.546,0 25.618,5.166 21.9,12.992 c -0.351,0.74 -1.051,1.253 -1.861,1.369 -9.84,1.402 -17.43,9.883 -17.43,20.103 0,10.296 7.709,18.806 17.656,20.11 1.444,-1.359 3.186,-2.407 5.123,-3.018 10e-4,-1.699 0.003,-3.354 0.004,-4.789 h -2.478 c -6.785,0 -12.305,-5.52 -12.305,-12.305 0,-6.785 5.52,-12.305 12.305,-12.305 0.343,0 0.68,0.027 1.015,0.055 1.955,0.151 3.726,-1.117 4.202,-3.014 C 29.786,12.605 35.685,8 42.475,8 c 3.88,0 7.552,1.499 10.339,4.219 0.953,0.929 2.307,1.325 3.609,1.053 0.83,-0.173 1.68,-0.261 2.524,-0.261 4.75,0 8.993,2.671 11.071,6.97 0.73,1.512 2.328,2.411 3.999,2.239 0.416,-0.042 0.831,-0.063 1.233,-0.063 6.785,0 12.306,5.52 12.306,12.305 0,6.785 -5.521,12.305 -12.306,12.305 h -2.47 l 0.002,4.789 c 1.937,0.611 3.677,1.658 5.12,3.017 9.944,-1.305 17.653,-9.815 17.653,-20.11 C 95.558,23.859 87.384,15.126 77.007,14.234 Z"
             id="path1606" />
        </g>
      </g>
      <g
         style="fill:#ffe200;fill-opacity:1"
         id="g1612" />
      <g
         style="fill:#ffe200;fill-opacity:1"
         id="g1614" />
      <g
         style="fill:#ffe200;fill-opacity:1"
         id="g1616" />
      <g
         style="fill:#ffe200;fill-opacity:1"
         id="g1618" />
      <g
         style="fill:#ffe200;fill-opacity:1"
         id="g1620" />
      <g
         style="fill:#ffe200;fill-opacity:1"
         id="g1622" />
      <g
         style="fill:#ffe200;fill-opacity:1"
         id="g1624" />
      <g
         style="fill:#ffe200;fill-opacity:1"
         id="g1626" />
      <g
         style="fill:#ffe200;fill-opacity:1"
         id="g1628" />
      <g
         style="fill:#ffe200;fill-opacity:1"
         id="g1630" />
      <g
         style="fill:#ffe200;fill-opacity:1"
         id="g1632" />
      <g
         style="fill:#ffe200;fill-opacity:1"
         id="g1634" />
      <g
         style="fill:#ffe200;fill-opacity:1"
         id="g1636" />
      <g
         style="fill:#ffe200;fill-opacity:1"
         id="g1638" />
      <g
         style="fill:#ffe200;fill-opacity:1"
         id="g1640" />
    </g>
    <g
       id="g3516"
       transform="matrix(0.0854586,0,0,0.0854586,205.34524,41.860479)">
      <path
         id="path3431"
         d="m 501.333,236.666 c 0,0.125 0,0.251 -0.001,0.377 -0.111,22.696 -18.751,40.956 -41.447,40.956 H 53.532 c -19.425,0 -36.321,-13.476 -40.469,-32.453 -1.564,-7.16 -2.396,-14.376 -2.396,-20.88 0,-41.24 33.427,-74.667 74.667,-74.667 4.64,0 9.187,0.427 13.6,1.24 2.72,-28.387 26.627,-50.573 55.733,-50.573 6.667,0 13.053,1.16 18.973,3.307 17.933,-46.4 62.973,-79.307 115.693,-79.307 68.48,0 124,55.52 124,124 0,4.973 -0.293,9.88 -0.867,14.693 4.6,-0.893 9.347,-1.36 14.2,-1.36 41.241,0 74.667,33.427 74.667,74.667 z"
         style="fill:#00a652;fill-opacity:1"
         inkscape:connector-curvature="0" />
      <circle
         id="circle3433"
         r="26.667"
         cy="460.66599"
         cx="208"
         style="fill:#ffa52c;fill-opacity:1" />
      <g
         id="g3439">
        <circle
           id="circle3435"
           r="26.667"
           cy="460.66599"
           cx="304"
           style="fill:#0000f9;fill-opacity:1" />
        <circle
           id="circle3437"
           r="26.667"
           cy="364.66599"
           cx="65.333"
           style="fill:#ff0018;fill-opacity:1" />
      </g>
      <circle
         id="circle3441"
         r="26.667"
         cy="364.66599"
         cx="446.66699"
         style="fill:#86007d;fill-opacity:1" />
      <g
         id="g3451">
        <path
           id="path3443"
           d="m 85.333,181.999 c -23.527,0 -42.667,19.14 -42.667,42.667 0,3.832 0.481,8.248 1.391,12.771 1.019,5.065 5.471,8.564 10.445,8.564 0.697,0 1.405,-0.068 2.115,-0.212 5.776,-1.163 9.515,-6.785 8.353,-12.561 -0.625,-3.115 -0.971,-6.155 -0.971,-8.561 0,-11.763 9.571,-21.333 21.333,-21.333 5.891,0 10.667,-4.776 10.667,-10.667 0,-5.891 -4.775,-10.668 -10.666,-10.668 z"
           style="fill:#231f20"
           inkscape:connector-curvature="0" />
        <path
           id="path3445"
           d="m 426.667,193.999 c -5.891,0 -10.667,4.776 -10.667,10.667 0,5.891 4.776,10.667 10.667,10.667 11.48,0 20.843,8.977 21.315,20.44 0.236,5.736 4.961,10.227 10.649,10.227 0.148,0 0.297,-0.003 0.447,-0.009 5.887,-0.243 10.461,-5.211 10.219,-11.097 -0.945,-22.932 -19.67,-40.895 -42.63,-40.895 z"
           style="fill:#231f20"
           inkscape:connector-curvature="0" />
        <path
           id="path3447"
           d="m 289.333,56.666 c -37.744,0 -72.243,23.647 -85.845,58.843 -2.124,5.496 0.609,11.671 6.104,13.795 5.5,2.124 11.672,-0.609 13.795,-6.104 10.449,-27.036 36.951,-45.2 65.947,-45.2 38.965,0 70.667,31.701 70.667,70.667 0,5.891 4.776,10.667 10.667,10.667 5.891,0 10.667,-4.776 10.667,-10.667 -0.002,-50.73 -41.272,-92.001 -92.002,-92.001 z"
           style="fill:#231f20"
           inkscape:connector-curvature="0" />
        <path
           id="path3449"
           d="m 426.667,151.333 c -0.897,0 -1.796,0.015 -2.695,0.043 0.019,-0.903 0.028,-1.807 0.028,-2.709 C 424,74.412 363.588,14 289.333,14 261.613,14 234.988,22.36 212.336,38.173 192.869,51.764 177.511,69.976 167.497,91.233 163.3,90.413 159.01,90 154.666,90 c -30.828,0 -56.864,20.627 -64.441,49.473 -1.629,-0.093 -3.261,-0.14 -4.892,-0.14 C 38.28,139.333 0,177.613 0,224.666 c 0,7.236 0.915,15.244 2.643,23.157 5.171,23.667 26.573,40.843 50.889,40.843 h 69.135 v 65.333 H 101.106 C 96.505,338.595 82.214,327.332 65.334,327.332 44.748,327.333 28,344.081 28,364.666 c 0,20.585 16.748,37.333 37.333,37.333 16.88,0 31.171,-11.263 35.772,-26.667 h 32.228 c 5.891,0 10.667,-4.776 10.667,-10.667 v -76 h 53.333 v 136.228 c -15.404,4.601 -26.667,18.892 -26.667,35.772 0,20.585 16.748,37.333 37.333,37.333 20.585,0 37.333,-16.748 37.333,-37.333 0,-16.88 -11.263,-31.171 -26.667,-35.772 V 288.666 h 74.667 v 136.228 c -15.404,4.601 -26.667,18.892 -26.667,35.772 0,20.585 16.748,37.333 37.333,37.333 20.585,0 37.333,-16.748 37.333,-37.333 0,-16.88 -11.263,-31.171 -26.667,-35.772 V 288.666 H 368 v 76 c 0,5.891 4.776,10.667 10.667,10.667 h 32.228 C 415.496,390.737 429.787,402 446.667,402 467.252,402 484,385.252 484,364.667 c 0,-20.585 -16.748,-37.333 -37.333,-37.333 -16.88,0 -31.171,11.263 -35.772,26.667 h -21.561 v -65.333 h 70.552 c 28.597,0 51.975,-23.135 52.113,-51.571 v -0.429 C 512,189.613 473.72,151.333 426.667,151.333 Z M 65.333,380.666 c -8.823,0 -16,-7.177 -16,-16 0,-8.823 7.177,-16 16,-16 8.823,0 16,7.177 16,16 0,8.823 -7.177,16 -16,16 z m 381.334,-32 c 8.823,0 16,7.177 16,16 0,8.823 -7.177,16 -16,16 -8.823,0 -16,-7.177 -16,-16 0,-8.823 7.177,-16 16,-16 z M 224,460.666 c 0,8.823 -7.177,16 -16,16 -8.823,0 -16,-7.177 -16,-16 0,-8.823 7.177,-16 16,-16 8.823,0 16,7.177 16,16 z m 96,0 c 0,8.823 -7.177,16 -16,16 -8.823,0 -16,-7.177 -16,-16 0,-8.823 7.177,-16 16,-16 8.823,0 16,7.177 16,16 z M 490.667,236.991 c -0.081,16.731 -13.889,30.341 -30.78,30.341 H 53.532 c -14.364,0 -27,-10.12 -30.048,-24.064 -1.407,-6.441 -2.151,-12.873 -2.151,-18.603 0,-35.289 28.711,-64 64,-64 3.915,0 7.839,0.359 11.667,1.063 2.939,0.541 5.973,-0.175 8.36,-1.975 2.387,-1.801 3.908,-4.521 4.193,-7.497 2.233,-23.331 21.628,-40.924 45.113,-40.924 5.295,0 10.455,0.897 15.337,2.668 5.459,1.977 11.495,-0.769 13.585,-6.183 16.757,-43.356 59.252,-72.485 105.744,-72.485 62.492,0 113.333,50.841 113.333,113.333 0,4.5 -0.267,9.019 -0.792,13.432 -0.403,3.384 0.835,6.756 3.331,9.075 2.496,2.32 5.948,3.307 9.295,2.657 3.979,-0.772 8.072,-1.164 12.167,-1.164 35.289,0 64,28.711 64,64 v 0.326 z"
           style="fill:#231f20"
           inkscape:connector-curvature="0" />
      </g>
      <g
         id="g3453" />
      <g
         id="g3455" />
      <g
         id="g3457" />
      <g
         id="g3459" />
      <g
         id="g3461" />
      <g
         id="g3463" />
      <g
         id="g3465" />
      <g
         id="g3467" />
      <g
         id="g3469" />
      <g
         id="g3471" />
      <g
         id="g3473" />
      <g
         id="g3475" />
      <g
         id="g3477" />
      <g
         id="g3479" />
      <g
         id="g3481" />
    </g>
  </g>
</svg>
